<?xml version="1.0" encoding="UTF-8"?>
<svg xmlns="http://www.w3.org/2000/svg" xmlns:xlink="http://www.w3.org/1999/xlink" width="512pt" height="512pt" viewBox="0 0 512 512" version="1.1">
<g id="surface8665214">
<path style=" stroke:none;fill-rule:nonzero;fill:rgb(100%,100%,100%);fill-opacity:1;" d="M 256 8 C 119.199219 8 8 119.199219 8 256 C 8 298 18.398438 339.203125 38.796875 375.601562 L 17.601562 453.203125 C 14 465.601562 17.597656 478.402344 26.796875 487.601562 C 35.996094 496.800781 48.804688 500.402344 61.203125 497.203125 L 142 476 C 177.199219 494.398438 216.398438 504 256.398438 504 C 393.199219 504 504.398438 392.800781 504.398438 256 C 504.398438 189.601562 478.800781 127.597656 432 80.796875 C 384.800781 33.996094 322.398438 8 256 8 Z M 256 32 C 316 32 372.398438 55.203125 414.398438 97.601562 C 456.796875 140 480.398438 196.398438 480 256 C 480 379.601562 379.601562 480 256 480 C 218.800781 480 181.597656 470.398438 148.796875 452.796875 C 147.195312 451.996094 145.203125 451.203125 143.203125 451.203125 C 142.003906 451.203125 141.199219 451.203125 140 451.601562 L 54.796875 474 C 48.796875 475.601562 44.804688 472.398438 43.203125 470.796875 C 41.601562 469.195312 38.398438 465.203125 40 459.203125 L 62.398438 376.796875 C 63.199219 373.597656 62.804688 370.402344 61.203125 367.601562 C 42.003906 334 32 295.199219 32 256 C 32 132.398438 132.398438 32 256 32 Z M 256 68 C 152.398438 68 68 152 68 256 C 68 289.199219 76.804688 321.601562 93.203125 350 C 99.601562 361.199219 101.199219 374.398438 98 386.796875 L 86.398438 428.796875 L 131.203125 417.203125 C 135.203125 416.003906 139.203125 415.601562 143.203125 415.601562 C 151.203125 415.601562 159.199219 417.601562 166 421.601562 C 193.601562 436 224.398438 444 256 444 C 359.601562 444 444 359.601562 444 256 C 444 205.601562 424.398438 158.398438 388.796875 122.796875 C 353.597656 87.597656 306.398438 68 256 68 Z M 172.398438 146.796875 L 183.601562 146.796875 C 188 146.796875 192.398438 147.195312 196.796875 156.796875 C 201.996094 168.398438 213.597656 197.597656 214.796875 200.398438 C 216.398438 203.199219 217.203125 206.796875 215.203125 210.796875 C 213.203125 214.796875 212.402344 217.195312 209.203125 220.796875 C 206.402344 224.398438 202.796875 228.402344 200.398438 231.203125 C 197.597656 234.003906 194.398438 237.203125 198 243.203125 C 201.601562 249.203125 213.195312 268.398438 230.796875 284 C 253.195312 304 272.398438 310.402344 278.398438 313.203125 C 284.398438 316.003906 287.601562 315.601562 291.203125 311.601562 C 294.804688 307.601562 306 294.398438 310 288.398438 C 314 282.398438 318.003906 283.601562 323.203125 285.601562 C 328.804688 287.601562 357.601562 301.996094 363.601562 304.796875 C 369.601562 307.597656 373.597656 309.203125 374.796875 311.601562 C 376.398438 314.800781 376.402344 326.398438 371.601562 340.398438 C 366.800781 354 342.800781 367.597656 331.601562 368.398438 C 320.800781 369.199219 310.796875 373.203125 260.796875 353.601562 C 200.796875 330 162.800781 268.398438 160 264.398438 C 157.199219 260.398438 136 232.402344 136 203.203125 C 136 174.003906 151.195312 160 156.796875 154 C 162.398438 148 168.398438 146.796875 172.398438 146.796875 Z M 172.398438 146.796875 "/>
</g>
</svg>
